<svg width="143" height="141" viewBox="0 0 143 141" fill="none" xmlns="http://www.w3.org/2000/svg">
<rect x="0.5" y="0.5" width="142" height="140" rx="9.5" stroke="#48394A" stroke-opacity="0.05"/>
<circle cx="71" cy="69.7837" r="38" fill="#F6F1EA"/>
<path d="M109.532 59.5159C113.266 58.5153 115.529 54.6475 113.995 51.0985C110.779 43.6523 105.708 37.1064 99.2191 32.1134C92.7303 27.1204 85.1038 23.8963 77.082 22.6946C73.2586 22.1218 70.0996 25.2997 70.0891 29.1657L70.0032 60.9661C69.9907 65.5766 74.3614 68.9398 78.8149 67.7465L109.532 59.5159Z" fill="#C4EBDD"/>
<path d="M40.1647 90.1611C36.9452 92.3014 36.0331 96.696 38.6706 99.5226C43.4147 104.607 49.3561 108.481 55.9993 110.764C62.6426 113.046 69.7106 113.641 76.5776 112.546C80.3954 111.938 82.3768 107.91 81.1526 104.243L72.7574 79.0964C71.2974 74.7232 66.0817 72.9312 62.2422 75.4837L40.1647 90.1611Z" fill="#FFD4E3"/>
<path d="M66.6728 34.9957C66.5357 31.1321 63.2689 28.0524 59.4819 28.83C52.8314 30.1955 46.5758 33.1646 41.2798 37.5233C35.9838 41.882 31.8668 47.4496 29.2475 53.7133C27.756 57.2799 30.1498 61.0781 33.9148 61.9558L59.0013 67.8041C63.4915 68.8509 67.7497 65.3463 67.5862 60.7387L66.6728 34.9957Z" fill="#DACBDB"/>
<path d="M101.34 23.07C101.173 23.07 101.043 23.0233 100.95 22.93C100.863 22.8367 100.82 22.7067 100.82 22.54V16.48C100.82 16.3067 100.867 16.1767 100.96 16.09C101.053 15.9967 101.183 15.95 101.35 15.95H103.74C104.5 15.95 105.087 16.14 105.5 16.52C105.913 16.8933 106.12 17.42 106.12 18.1C106.12 18.7867 105.913 19.32 105.5 19.7C105.087 20.0733 104.5 20.26 103.74 20.26H101.86V22.54C101.86 22.7067 101.817 22.8367 101.73 22.93C101.643 23.0233 101.513 23.07 101.34 23.07ZM101.86 19.43H103.59C104.09 19.43 104.467 19.32 104.72 19.1C104.98 18.8733 105.11 18.54 105.11 18.1C105.11 17.6667 104.98 17.34 104.72 17.12C104.467 16.8933 104.09 16.78 103.59 16.78H101.86V19.43ZM109.14 23.09C108.647 23.09 108.22 22.9867 107.86 22.78C107.507 22.5733 107.23 22.28 107.03 21.9C106.83 21.52 106.73 21.0733 106.73 20.56C106.73 20.1667 106.787 19.8167 106.9 19.51C107.013 19.2033 107.173 18.94 107.38 18.72C107.593 18.4933 107.847 18.3233 108.14 18.21C108.44 18.09 108.773 18.03 109.14 18.03C109.627 18.03 110.047 18.1333 110.4 18.34C110.76 18.5467 111.04 18.84 111.24 19.22C111.44 19.5933 111.54 20.04 111.54 20.56C111.54 20.9467 111.483 21.2967 111.37 21.61C111.257 21.9233 111.093 22.19 110.88 22.41C110.673 22.63 110.42 22.8 110.12 22.92C109.827 23.0333 109.5 23.09 109.14 23.09ZM109.14 22.31C109.413 22.31 109.653 22.2433 109.86 22.11C110.067 21.9767 110.227 21.78 110.34 21.52C110.46 21.26 110.52 20.94 110.52 20.56C110.52 19.9867 110.393 19.5533 110.14 19.26C109.887 18.9667 109.553 18.82 109.14 18.82C108.86 18.82 108.617 18.8867 108.41 19.02C108.203 19.1467 108.04 19.34 107.92 19.6C107.807 19.86 107.75 20.18 107.75 20.56C107.75 21.1267 107.877 21.56 108.13 21.86C108.383 22.16 108.72 22.31 109.14 22.31ZM114.941 23.09C114.441 23.09 114.008 22.9867 113.641 22.78C113.281 22.5667 113.001 22.27 112.801 21.89C112.601 21.5033 112.501 21.05 112.501 20.53C112.501 20.1433 112.558 19.7967 112.671 19.49C112.785 19.1767 112.945 18.9133 113.151 18.7C113.365 18.4867 113.621 18.3233 113.921 18.21C114.228 18.09 114.568 18.03 114.941 18.03C115.175 18.03 115.418 18.0667 115.671 18.14C115.931 18.2067 116.171 18.32 116.391 18.48C116.478 18.5333 116.531 18.6 116.551 18.68C116.578 18.7533 116.581 18.83 116.561 18.91C116.548 18.99 116.511 19.06 116.451 19.12C116.398 19.1733 116.331 19.2067 116.251 19.22C116.171 19.2267 116.085 19.2033 115.991 19.15C115.831 19.0367 115.668 18.9567 115.501 18.91C115.335 18.8567 115.175 18.83 115.021 18.83C114.781 18.83 114.568 18.87 114.381 18.95C114.201 19.0233 114.048 19.1333 113.921 19.28C113.795 19.42 113.698 19.5967 113.631 19.81C113.571 20.0233 113.541 20.2667 113.541 20.54C113.541 21.0867 113.668 21.5167 113.921 21.83C114.181 22.1367 114.548 22.29 115.021 22.29C115.175 22.29 115.335 22.2667 115.501 22.22C115.668 22.1733 115.831 22.0933 115.991 21.98C116.085 21.9267 116.171 21.9067 116.251 21.92C116.331 21.9333 116.395 21.97 116.441 22.03C116.495 22.0833 116.528 22.15 116.541 22.23C116.561 22.3033 116.558 22.38 116.531 22.46C116.505 22.54 116.448 22.6067 116.361 22.66C116.148 22.8133 115.915 22.9233 115.661 22.99C115.415 23.0567 115.175 23.09 114.941 23.09ZM119.727 23.09C119.227 23.09 118.793 22.9867 118.427 22.78C118.067 22.5667 117.787 22.27 117.587 21.89C117.387 21.5033 117.287 21.05 117.287 20.53C117.287 20.1433 117.343 19.7967 117.457 19.49C117.57 19.1767 117.73 18.9133 117.937 18.7C118.15 18.4867 118.407 18.3233 118.707 18.21C119.013 18.09 119.353 18.03 119.727 18.03C119.96 18.03 120.203 18.0667 120.457 18.14C120.717 18.2067 120.957 18.32 121.177 18.48C121.263 18.5333 121.317 18.6 121.337 18.68C121.363 18.7533 121.367 18.83 121.347 18.91C121.333 18.99 121.297 19.06 121.237 19.12C121.183 19.1733 121.117 19.2067 121.037 19.22C120.957 19.2267 120.87 19.2033 120.777 19.15C120.617 19.0367 120.453 18.9567 120.287 18.91C120.12 18.8567 119.96 18.83 119.807 18.83C119.567 18.83 119.353 18.87 119.167 18.95C118.987 19.0233 118.833 19.1333 118.707 19.28C118.58 19.42 118.483 19.5967 118.417 19.81C118.357 20.0233 118.327 20.2667 118.327 20.54C118.327 21.0867 118.453 21.5167 118.707 21.83C118.967 22.1367 119.333 22.29 119.807 22.29C119.96 22.29 120.12 22.2667 120.287 22.22C120.453 22.1733 120.617 22.0933 120.777 21.98C120.87 21.9267 120.957 21.9067 121.037 21.92C121.117 21.9333 121.18 21.97 121.227 22.03C121.28 22.0833 121.313 22.15 121.327 22.23C121.347 22.3033 121.343 22.38 121.317 22.46C121.29 22.54 121.233 22.6067 121.147 22.66C120.933 22.8133 120.7 22.9233 120.447 22.99C120.2 23.0567 119.96 23.09 119.727 23.09ZM122.822 23.07C122.722 23.07 122.635 23.05 122.562 23.01C122.495 22.9767 122.442 22.92 122.402 22.84C122.368 22.76 122.352 22.6567 122.352 22.53V18.54C122.352 18.38 122.392 18.26 122.472 18.18C122.552 18.0933 122.665 18.05 122.812 18.05C122.958 18.05 123.072 18.0933 123.152 18.18C123.232 18.26 123.272 18.38 123.272 18.54V22H123.012L125.722 18.38C125.788 18.2933 125.865 18.2167 125.952 18.15C126.038 18.0833 126.155 18.05 126.302 18.05C126.402 18.05 126.485 18.07 126.552 18.11C126.618 18.1433 126.668 18.2 126.702 18.28C126.742 18.36 126.762 18.4633 126.762 18.59V22.58C126.762 22.7333 126.722 22.8533 126.642 22.94C126.568 23.0267 126.458 23.07 126.312 23.07C126.158 23.07 126.042 23.0267 125.962 22.94C125.882 22.8533 125.842 22.7333 125.842 22.58V19.12H126.112L123.392 22.75C123.332 22.83 123.258 22.9033 123.172 22.97C123.092 23.0367 122.975 23.07 122.822 23.07ZM131.78 23.07C131.626 23.07 131.51 23.03 131.43 22.95C131.35 22.8633 131.31 22.7433 131.31 22.59V21.22H130.68C130.446 21.22 130.246 21.28 130.08 21.4C129.913 21.52 129.776 21.6733 129.67 21.86L129.14 22.79C129.066 22.91 128.98 22.99 128.88 23.03C128.78 23.0767 128.68 23.0867 128.58 23.06C128.48 23.0333 128.393 22.9833 128.32 22.91C128.246 22.8367 128.2 22.75 128.18 22.65C128.166 22.5433 128.193 22.4333 128.26 22.32L128.66 21.64C128.766 21.4533 128.913 21.2967 129.1 21.17C129.293 21.0367 129.486 20.97 129.68 20.97H129.84V21.07C129.286 21.07 128.856 20.9433 128.55 20.69C128.243 20.4367 128.09 20.0767 128.09 19.61C128.09 19.31 128.156 19.05 128.29 18.83C128.43 18.6033 128.636 18.43 128.91 18.31C129.183 18.1833 129.52 18.12 129.92 18.12H131.73C131.896 18.12 132.023 18.1667 132.11 18.26C132.203 18.3467 132.25 18.4733 132.25 18.64V22.59C132.25 22.7433 132.206 22.8633 132.12 22.95C132.033 23.03 131.92 23.07 131.78 23.07ZM130.13 20.53H131.31V18.81H130.13C129.763 18.81 129.493 18.8867 129.32 19.04C129.146 19.1867 129.06 19.3933 129.06 19.66C129.06 19.9333 129.146 20.1467 129.32 20.3C129.493 20.4533 129.763 20.53 130.13 20.53Z" fill="#505050" fill-opacity="0.8"/>
<path d="M50.6593 131.07C50.4927 131.07 50.3627 131.023 50.2693 130.93C50.1827 130.837 50.1393 130.707 50.1393 130.54V124.48C50.1393 124.307 50.186 124.177 50.2793 124.09C50.3727 123.997 50.506 123.95 50.6793 123.95H54.2893C54.436 123.95 54.546 123.987 54.6193 124.06C54.6993 124.133 54.7393 124.24 54.7393 124.38C54.7393 124.52 54.6993 124.63 54.6193 124.71C54.546 124.783 54.436 124.82 54.2893 124.82H51.1793V130.54C51.1793 130.707 51.136 130.837 51.0493 130.93C50.9627 131.023 50.8327 131.07 50.6593 131.07ZM56.6762 131.09C56.1429 131.09 55.6829 130.99 55.2962 130.79C54.9162 130.583 54.6195 130.293 54.4062 129.92C54.1995 129.54 54.0962 129.09 54.0962 128.57C54.0962 128.063 54.1995 127.62 54.4062 127.24C54.6129 126.86 54.8962 126.563 55.2562 126.35C55.6162 126.137 56.0262 126.03 56.4862 126.03C56.8262 126.03 57.1295 126.087 57.3962 126.2C57.6629 126.307 57.8895 126.467 58.0762 126.68C58.2695 126.887 58.4129 127.14 58.5062 127.44C58.6062 127.74 58.6562 128.077 58.6562 128.45C58.6562 128.563 58.6229 128.65 58.5562 128.71C58.4895 128.763 58.3895 128.79 58.2562 128.79H54.8962V128.17H57.9762L57.8062 128.31C57.8062 127.977 57.7562 127.693 57.6562 127.46C57.5629 127.227 57.4195 127.05 57.2262 126.93C57.0395 126.803 56.8062 126.74 56.5262 126.74C56.2129 126.74 55.9462 126.813 55.7262 126.96C55.5129 127.107 55.3495 127.31 55.2362 127.57C55.1229 127.83 55.0662 128.133 55.0662 128.48V128.54C55.0662 129.127 55.2029 129.57 55.4762 129.87C55.7562 130.163 56.1595 130.31 56.6862 130.31C56.8862 130.31 57.0962 130.283 57.3162 130.23C57.5429 130.177 57.7562 130.087 57.9562 129.96C58.0695 129.893 58.1695 129.863 58.2562 129.87C58.3495 129.877 58.4229 129.907 58.4762 129.96C58.5362 130.013 58.5729 130.08 58.5862 130.16C58.5995 130.24 58.5862 130.323 58.5462 130.41C58.5062 130.49 58.4362 130.563 58.3362 130.63C58.1095 130.783 57.8462 130.9 57.5462 130.98C57.2462 131.053 56.9562 131.09 56.6762 131.09ZM60.3647 132.87C60.2047 132.87 60.0814 132.827 59.9947 132.74C59.9081 132.653 59.8647 132.527 59.8647 132.36V126.56C59.8647 126.393 59.9081 126.267 59.9947 126.18C60.0814 126.093 60.2014 126.05 60.3547 126.05C60.5147 126.05 60.6381 126.093 60.7247 126.18C60.8114 126.267 60.8547 126.393 60.8547 126.56V127.43L60.7447 127.22C60.8514 126.86 61.0614 126.573 61.3747 126.36C61.6881 126.14 62.0581 126.03 62.4847 126.03C62.9181 126.03 63.2947 126.133 63.6147 126.34C63.9414 126.547 64.1914 126.837 64.3647 127.21C64.5447 127.583 64.6347 128.033 64.6347 128.56C64.6347 129.073 64.5447 129.523 64.3647 129.91C64.1914 130.29 63.9447 130.583 63.6247 130.79C63.3047 130.99 62.9247 131.09 62.4847 131.09C62.0647 131.09 61.6981 130.983 61.3847 130.77C61.0714 130.557 60.8614 130.273 60.7547 129.92H60.8747V132.36C60.8747 132.527 60.8281 132.653 60.7347 132.74C60.6481 132.827 60.5247 132.87 60.3647 132.87ZM62.2347 130.31C62.5147 130.31 62.7581 130.243 62.9647 130.11C63.1714 129.977 63.3314 129.78 63.4447 129.52C63.5581 129.26 63.6147 128.94 63.6147 128.56C63.6147 127.987 63.4881 127.553 63.2347 127.26C62.9881 126.967 62.6547 126.82 62.2347 126.82C61.9614 126.82 61.7181 126.887 61.5047 127.02C61.2981 127.147 61.1381 127.34 61.0247 127.6C60.9114 127.86 60.8547 128.18 60.8547 128.56C60.8547 129.127 60.9814 129.56 61.2347 129.86C61.4881 130.16 61.8214 130.31 62.2347 130.31ZM66.3204 131.07C66.1737 131.07 66.0604 131.03 65.9804 130.95C65.907 130.863 65.8704 130.743 65.8704 130.59V126.59C65.8704 126.477 65.887 126.38 65.9204 126.3C65.9537 126.22 66.0037 126.16 66.0704 126.12C66.137 126.073 66.2237 126.05 66.3304 126.05C66.4304 126.05 66.5137 126.067 66.5804 126.1C66.647 126.133 66.7037 126.177 66.7504 126.23C66.797 126.283 66.837 126.343 66.8704 126.41L68.4704 129.21L70.0604 126.41C70.1004 126.337 70.1437 126.273 70.1904 126.22C70.237 126.167 70.2937 126.127 70.3604 126.1C70.427 126.067 70.507 126.05 70.6004 126.05C70.7537 126.05 70.867 126.097 70.9404 126.19C71.0204 126.283 71.0604 126.417 71.0604 126.59V130.59C71.0604 130.743 71.0204 130.863 70.9404 130.95C70.867 131.03 70.757 131.07 70.6104 131.07C70.4704 131.07 70.3604 131.03 70.2804 130.95C70.207 130.863 70.1704 130.743 70.1704 130.59V127.29H70.4004L68.8204 130.03C68.787 130.09 68.7437 130.143 68.6904 130.19C68.637 130.237 68.5637 130.26 68.4704 130.26C68.3704 130.26 68.2937 130.237 68.2404 130.19C68.1937 130.137 68.1537 130.083 68.1204 130.03L66.5304 127.29H66.7604V130.59C66.7604 130.743 66.7204 130.863 66.6404 130.95C66.567 131.03 66.4604 131.07 66.3204 131.07ZM74.1493 131.09C73.8093 131.09 73.5027 131.023 73.2293 130.89C72.9627 130.757 72.7527 130.577 72.5993 130.35C72.446 130.123 72.3693 129.867 72.3693 129.58C72.3693 129.22 72.4593 128.937 72.6393 128.73C72.826 128.517 73.1293 128.367 73.5493 128.28C73.976 128.187 74.5493 128.14 75.2693 128.14H75.7393V128.76H75.2793C74.7993 128.76 74.4193 128.783 74.1393 128.83C73.8593 128.877 73.6593 128.957 73.5393 129.07C73.426 129.177 73.3693 129.327 73.3693 129.52C73.3693 129.773 73.456 129.98 73.6293 130.14C73.8027 130.293 74.0427 130.37 74.3493 130.37C74.596 130.37 74.8127 130.313 74.9993 130.2C75.186 130.08 75.3327 129.92 75.4393 129.72C75.5527 129.52 75.6093 129.29 75.6093 129.03V127.88C75.6093 127.5 75.5293 127.227 75.3693 127.06C75.2093 126.893 74.946 126.81 74.5793 126.81C74.366 126.81 74.1427 126.837 73.9093 126.89C73.6827 126.943 73.446 127.033 73.1993 127.16C73.086 127.213 72.9893 127.23 72.9093 127.21C72.8293 127.19 72.766 127.147 72.7193 127.08C72.6727 127.007 72.646 126.93 72.6393 126.85C72.6393 126.763 72.6593 126.68 72.6993 126.6C72.746 126.52 72.8227 126.46 72.9293 126.42C73.2227 126.28 73.5127 126.18 73.7993 126.12C74.086 126.06 74.356 126.03 74.6093 126.03C75.056 126.03 75.4227 126.1 75.7093 126.24C76.0027 126.38 76.2193 126.593 76.3593 126.88C76.4993 127.167 76.5693 127.537 76.5693 127.99V130.56C76.5693 130.72 76.5293 130.847 76.4493 130.94C76.3693 131.027 76.2527 131.07 76.0993 131.07C75.9527 131.07 75.836 131.027 75.7493 130.94C75.6627 130.847 75.6193 130.72 75.6193 130.56V129.91H75.7093C75.656 130.157 75.556 130.37 75.4093 130.55C75.2693 130.723 75.0927 130.857 74.8793 130.95C74.666 131.043 74.4227 131.09 74.1493 131.09ZM78.5776 131.07C78.4176 131.07 78.291 131.027 78.1976 130.94C78.111 130.847 78.0676 130.72 78.0676 130.56V126.56C78.0676 126.387 78.111 126.26 78.1976 126.18C78.291 126.093 78.4176 126.05 78.5776 126.05C78.7376 126.05 78.861 126.093 78.9476 126.18C79.0343 126.26 79.0776 126.387 79.0776 126.56V128.09H81.5076V126.56C81.5076 126.387 81.5476 126.26 81.6276 126.18C81.7143 126.093 81.841 126.05 82.0076 126.05C82.1676 126.05 82.291 126.093 82.3776 126.18C82.471 126.26 82.5176 126.387 82.5176 126.56V130.56C82.5176 130.72 82.471 130.847 82.3776 130.94C82.291 131.027 82.1676 131.07 82.0076 131.07C81.841 131.07 81.7143 131.027 81.6276 130.94C81.5476 130.847 81.5076 130.72 81.5076 130.56V128.89H79.0776V130.56C79.0776 130.72 79.0343 130.847 78.9476 130.94C78.8676 131.027 78.7443 131.07 78.5776 131.07ZM84.4946 131.07C84.3946 131.07 84.308 131.05 84.2346 131.01C84.168 130.977 84.1146 130.92 84.0746 130.84C84.0413 130.76 84.0246 130.657 84.0246 130.53V126.54C84.0246 126.38 84.0646 126.26 84.1446 126.18C84.2246 126.093 84.338 126.05 84.4846 126.05C84.6313 126.05 84.7446 126.093 84.8246 126.18C84.9046 126.26 84.9446 126.38 84.9446 126.54V130H84.6846L87.3946 126.38C87.4613 126.293 87.538 126.217 87.6246 126.15C87.7113 126.083 87.828 126.05 87.9746 126.05C88.0746 126.05 88.158 126.07 88.2246 126.11C88.2913 126.143 88.3413 126.2 88.3746 126.28C88.4146 126.36 88.4346 126.463 88.4346 126.59V130.58C88.4346 130.733 88.3946 130.853 88.3146 130.94C88.2413 131.027 88.1313 131.07 87.9846 131.07C87.8313 131.07 87.7146 131.027 87.6346 130.94C87.5546 130.853 87.5146 130.733 87.5146 130.58V127.12H87.7846L85.0646 130.75C85.0046 130.83 84.9313 130.903 84.8446 130.97C84.7646 131.037 84.648 131.07 84.4946 131.07ZM93.4524 131.07C93.299 131.07 93.1824 131.03 93.1024 130.95C93.0224 130.863 92.9824 130.743 92.9824 130.59V129.22H92.3524C92.119 129.22 91.919 129.28 91.7524 129.4C91.5857 129.52 91.449 129.673 91.3424 129.86L90.8124 130.79C90.739 130.91 90.6524 130.99 90.5524 131.03C90.4524 131.077 90.3524 131.087 90.2524 131.06C90.1524 131.033 90.0657 130.983 89.9924 130.91C89.919 130.837 89.8724 130.75 89.8524 130.65C89.839 130.543 89.8657 130.433 89.9324 130.32L90.3324 129.64C90.439 129.453 90.5857 129.297 90.7724 129.17C90.9657 129.037 91.159 128.97 91.3524 128.97H91.5124V129.07C90.959 129.07 90.529 128.943 90.2224 128.69C89.9157 128.437 89.7624 128.077 89.7624 127.61C89.7624 127.31 89.829 127.05 89.9624 126.83C90.1024 126.603 90.309 126.43 90.5824 126.31C90.8557 126.183 91.1924 126.12 91.5924 126.12H93.4024C93.569 126.12 93.6957 126.167 93.7824 126.26C93.8757 126.347 93.9224 126.473 93.9224 126.64V130.59C93.9224 130.743 93.879 130.863 93.7924 130.95C93.7057 131.03 93.5924 131.07 93.4524 131.07ZM91.8024 128.53H92.9824V126.81H91.8024C91.4357 126.81 91.1657 126.887 90.9924 127.04C90.819 127.187 90.7324 127.393 90.7324 127.66C90.7324 127.933 90.819 128.147 90.9924 128.3C91.1657 128.453 91.4357 128.53 91.8024 128.53Z" fill="#505050" fill-opacity="0.5"/>
<path d="M13.32 23.31C13.1533 23.31 13.0233 23.2633 12.93 23.17C12.8433 23.0767 12.8 22.9467 12.8 22.78V22.16L13.07 22.44H12.81C12.1433 22.44 11.5667 22.32 11.08 22.08C10.6 21.84 10.23 21.4967 9.97 21.05C9.71 20.5967 9.58 20.0533 9.58 19.42C9.58 18.94 9.65 18.5133 9.79 18.14C9.93667 17.7667 10.1467 17.45 10.42 17.19C10.7 16.93 11.04 16.7333 11.44 16.6C11.8467 16.4667 12.3033 16.4 12.81 16.4H13.07L12.8 16.68V16.12C12.8 15.9467 12.8433 15.8167 12.93 15.73C13.0233 15.6367 13.1533 15.59 13.32 15.59C13.4867 15.59 13.6133 15.6367 13.7 15.73C13.7933 15.8167 13.84 15.9467 13.84 16.12V16.68L13.57 16.4H13.82C14.5067 16.4 15.09 16.52 15.57 16.76C16.05 16.9933 16.4167 17.3367 16.67 17.79C16.93 18.2367 17.06 18.78 17.06 19.42C17.06 19.8933 16.9833 20.3167 16.83 20.69C16.6833 21.0633 16.47 21.38 16.19 21.64C15.91 21.9 15.57 22.1 15.17 22.24C14.7767 22.3733 14.3267 22.44 13.82 22.44H13.57L13.84 22.16V22.78C13.84 22.9467 13.7967 23.0767 13.71 23.17C13.6233 23.2633 13.4933 23.31 13.32 23.31ZM12.8 21.83V17.01L13.04 17.21H12.69C12.3833 17.21 12.1033 17.2567 11.85 17.35C11.6033 17.4433 11.3867 17.5833 11.2 17.77C11.02 17.9567 10.88 18.19 10.78 18.47C10.6867 18.7433 10.64 19.06 10.64 19.42C10.64 19.8867 10.7267 20.2867 10.9 20.62C11.0733 20.9467 11.3133 21.1967 11.62 21.37C11.9333 21.5433 12.29 21.63 12.69 21.63H13.04L12.8 21.83ZM13.83 21.83L13.6 21.63H13.94C14.2467 21.63 14.5233 21.5833 14.77 21.49C15.0233 21.39 15.24 21.2467 15.42 21.06C15.6 20.8667 15.74 20.6333 15.84 20.36C15.94 20.0867 15.99 19.7733 15.99 19.42C15.99 18.9333 15.9033 18.5267 15.73 18.2C15.5633 17.8733 15.3267 17.6267 15.02 17.46C14.7133 17.2933 14.3533 17.21 13.94 17.21H13.6L13.83 17.01V21.83ZM18.9028 24.87C18.7428 24.87 18.6195 24.8267 18.5328 24.74C18.4461 24.6533 18.4028 24.5267 18.4028 24.36V18.56C18.4028 18.3933 18.4461 18.2667 18.5328 18.18C18.6195 18.0933 18.7395 18.05 18.8928 18.05C19.0528 18.05 19.1761 18.0933 19.2628 18.18C19.3495 18.2667 19.3928 18.3933 19.3928 18.56V19.43L19.2828 19.22C19.3895 18.86 19.5995 18.5733 19.9128 18.36C20.2261 18.14 20.5961 18.03 21.0228 18.03C21.4561 18.03 21.8328 18.1333 22.1528 18.34C22.4795 18.5467 22.7295 18.8367 22.9028 19.21C23.0828 19.5833 23.1728 20.0333 23.1728 20.56C23.1728 21.0733 23.0828 21.5233 22.9028 21.91C22.7295 22.29 22.4828 22.5833 22.1628 22.79C21.8428 22.99 21.4628 23.09 21.0228 23.09C20.6028 23.09 20.2361 22.9833 19.9228 22.77C19.6095 22.5567 19.3995 22.2733 19.2928 21.92H19.4128V24.36C19.4128 24.5267 19.3661 24.6533 19.2728 24.74C19.1861 24.8267 19.0628 24.87 18.9028 24.87ZM20.7728 22.31C21.0528 22.31 21.2961 22.2433 21.5028 22.11C21.7095 21.9767 21.8695 21.78 21.9828 21.52C22.0961 21.26 22.1528 20.94 22.1528 20.56C22.1528 19.9867 22.0261 19.5533 21.7728 19.26C21.5261 18.9667 21.1928 18.82 20.7728 18.82C20.4995 18.82 20.2561 18.8867 20.0428 19.02C19.8361 19.1467 19.6761 19.34 19.5628 19.6C19.4495 19.86 19.3928 20.18 19.3928 20.56C19.3928 21.1267 19.5195 21.56 19.7728 21.86C20.0261 22.16 20.3595 22.31 20.7728 22.31ZM25.9784 23.09C25.6384 23.09 25.3318 23.0233 25.0584 22.89C24.7918 22.7567 24.5818 22.5767 24.4284 22.35C24.2751 22.1233 24.1984 21.8667 24.1984 21.58C24.1984 21.22 24.2884 20.9367 24.4684 20.73C24.6551 20.5167 24.9584 20.3667 25.3784 20.28C25.8051 20.1867 26.3784 20.14 27.0984 20.14H27.5684V20.76H27.1084C26.6284 20.76 26.2484 20.7833 25.9684 20.83C25.6884 20.8767 25.4884 20.9567 25.3684 21.07C25.2551 21.1767 25.1984 21.3267 25.1984 21.52C25.1984 21.7733 25.2851 21.98 25.4584 22.14C25.6318 22.2933 25.8718 22.37 26.1784 22.37C26.4251 22.37 26.6418 22.3133 26.8284 22.2C27.0151 22.08 27.1618 21.92 27.2684 21.72C27.3818 21.52 27.4384 21.29 27.4384 21.03V19.88C27.4384 19.5 27.3584 19.2267 27.1984 19.06C27.0384 18.8933 26.7751 18.81 26.4084 18.81C26.1951 18.81 25.9718 18.8367 25.7384 18.89C25.5118 18.9433 25.2751 19.0333 25.0284 19.16C24.9151 19.2133 24.8184 19.23 24.7384 19.21C24.6584 19.19 24.5951 19.1467 24.5484 19.08C24.5018 19.0067 24.4751 18.93 24.4684 18.85C24.4684 18.7633 24.4884 18.68 24.5284 18.6C24.5751 18.52 24.6518 18.46 24.7584 18.42C25.0518 18.28 25.3418 18.18 25.6284 18.12C25.9151 18.06 26.1851 18.03 26.4384 18.03C26.8851 18.03 27.2518 18.1 27.5384 18.24C27.8318 18.38 28.0484 18.5933 28.1884 18.88C28.3284 19.1667 28.3984 19.5367 28.3984 19.99V22.56C28.3984 22.72 28.3584 22.8467 28.2784 22.94C28.1984 23.0267 28.0818 23.07 27.9284 23.07C27.7818 23.07 27.6651 23.0267 27.5784 22.94C27.4918 22.8467 27.4484 22.72 27.4484 22.56V21.91H27.5384C27.4851 22.1567 27.3851 22.37 27.2384 22.55C27.0984 22.7233 26.9218 22.8567 26.7084 22.95C26.4951 23.0433 26.2518 23.09 25.9784 23.09ZM30.4067 23.07C30.2467 23.07 30.1201 23.0267 30.0267 22.94C29.9401 22.8467 29.8967 22.72 29.8967 22.56V18.56C29.8967 18.3867 29.9401 18.26 30.0267 18.18C30.1201 18.0933 30.2467 18.05 30.4067 18.05C30.5667 18.05 30.6901 18.0933 30.7767 18.18C30.8634 18.26 30.9067 18.3867 30.9067 18.56V20.09H33.3367V18.56C33.3367 18.3867 33.3767 18.26 33.4567 18.18C33.5434 18.0933 33.6701 18.05 33.8367 18.05C33.9967 18.05 34.1201 18.0933 34.2067 18.18C34.3001 18.26 34.3467 18.3867 34.3467 18.56V22.56C34.3467 22.72 34.3001 22.8467 34.2067 22.94C34.1201 23.0267 33.9967 23.07 33.8367 23.07C33.6701 23.07 33.5434 23.0267 33.4567 22.94C33.3767 22.8467 33.3367 22.72 33.3367 22.56V20.89H30.9067V22.56C30.9067 22.72 30.8634 22.8467 30.7767 22.94C30.6967 23.0267 30.5734 23.07 30.4067 23.07ZM40.5038 24.37C40.3704 24.37 40.2638 24.3333 40.1838 24.26C40.1104 24.1867 40.0738 24.0767 40.0738 23.93V23H36.3638C36.1971 23 36.0704 22.9567 35.9838 22.87C35.8971 22.7767 35.8538 22.65 35.8538 22.49V18.56C35.8538 18.3867 35.8971 18.26 35.9838 18.18C36.0771 18.0933 36.2038 18.05 36.3638 18.05C36.5238 18.05 36.6471 18.0933 36.7338 18.18C36.8204 18.26 36.8638 18.3867 36.8638 18.56V22.2H39.1438V18.56C39.1438 18.3867 39.1871 18.26 39.2738 18.18C39.3671 18.0933 39.4938 18.05 39.6538 18.05C39.8138 18.05 39.9371 18.0933 40.0238 18.18C40.1104 18.26 40.1538 18.3867 40.1538 18.56V22.67L39.6838 22.2H40.4538C40.6071 22.2 40.7238 22.24 40.8038 22.32C40.8904 22.4 40.9338 22.52 40.9338 22.68V23.93C40.9338 24.2233 40.7904 24.37 40.5038 24.37ZM42.4175 23.07C42.3175 23.07 42.2308 23.05 42.1575 23.01C42.0908 22.9767 42.0375 22.92 41.9975 22.84C41.9642 22.76 41.9475 22.6567 41.9475 22.53V18.54C41.9475 18.38 41.9875 18.26 42.0675 18.18C42.1475 18.0933 42.2608 18.05 42.4075 18.05C42.5542 18.05 42.6675 18.0933 42.7475 18.18C42.8275 18.26 42.8675 18.38 42.8675 18.54V22H42.6075L45.3175 18.38C45.3842 18.2933 45.4608 18.2167 45.5475 18.15C45.6342 18.0833 45.7508 18.05 45.8975 18.05C45.9975 18.05 46.0808 18.07 46.1475 18.11C46.2142 18.1433 46.2642 18.2 46.2975 18.28C46.3375 18.36 46.3575 18.4633 46.3575 18.59V22.58C46.3575 22.7333 46.3175 22.8533 46.2375 22.94C46.1642 23.0267 46.0542 23.07 45.9075 23.07C45.7542 23.07 45.6375 23.0267 45.5575 22.94C45.4775 22.8533 45.4375 22.7333 45.4375 22.58V19.12H45.7075L42.9875 22.75C42.9275 22.83 42.8542 22.9033 42.7675 22.97C42.6875 23.0367 42.5708 23.07 42.4175 23.07ZM51.3752 23.07C51.2219 23.07 51.1052 23.03 51.0252 22.95C50.9452 22.8633 50.9052 22.7433 50.9052 22.59V21.22H50.2752C50.0419 21.22 49.8419 21.28 49.6752 21.4C49.5086 21.52 49.3719 21.6733 49.2652 21.86L48.7352 22.79C48.6619 22.91 48.5752 22.99 48.4752 23.03C48.3752 23.0767 48.2752 23.0867 48.1752 23.06C48.0752 23.0333 47.9886 22.9833 47.9152 22.91C47.8419 22.8367 47.7952 22.75 47.7752 22.65C47.7619 22.5433 47.7886 22.4333 47.8552 22.32L48.2552 21.64C48.3619 21.4533 48.5086 21.2967 48.6952 21.17C48.8886 21.0367 49.0819 20.97 49.2752 20.97H49.4352V21.07C48.8819 21.07 48.4519 20.9433 48.1452 20.69C47.8386 20.4367 47.6852 20.0767 47.6852 19.61C47.6852 19.31 47.7519 19.05 47.8852 18.83C48.0252 18.6033 48.2319 18.43 48.5052 18.31C48.7786 18.1833 49.1152 18.12 49.5152 18.12H51.3252C51.4919 18.12 51.6186 18.1667 51.7052 18.26C51.7986 18.3467 51.8452 18.4733 51.8452 18.64V22.59C51.8452 22.7433 51.8019 22.8633 51.7152 22.95C51.6286 23.03 51.5152 23.07 51.3752 23.07ZM49.7252 20.53H50.9052V18.81H49.7252C49.3586 18.81 49.0886 18.8867 48.9152 19.04C48.7419 19.1867 48.6552 19.3933 48.6552 19.66C48.6552 19.9333 48.7419 20.1467 48.9152 20.3C49.0886 20.4533 49.3586 20.53 49.7252 20.53Z" fill="#505050" fill-opacity="0.5"/>
</svg>
