<svg width="32" height="32" viewBox="0 0 32 32" fill="none" xmlns="http://www.w3.org/2000/svg">
<path d="M22.9254 8.19303C23.2545 7.82204 23.2224 7.25128 22.8266 6.95257C20.9032 5.50126 18.5598 4.69576 16.135 4.66689C13.4098 4.63443 10.7641 5.58506 8.68279 7.34458C6.60147 9.1041 5.22387 11.5547 4.8024 14.2473C4.38093 16.9399 4.94382 19.6942 6.38794 22.0056C7.83205 24.3169 10.0607 26.0305 12.6655 26.8324C15.2702 27.6342 18.0767 27.4706 20.5707 26.3715C23.0646 25.2724 25.079 23.3115 26.2448 20.848C27.2821 18.656 27.5856 16.1967 27.1246 13.8317C27.0297 13.3449 26.5308 13.0659 26.0531 13.199C25.5753 13.3321 25.3005 13.827 25.3881 14.3151C25.7376 16.2623 25.474 18.2783 24.6215 20.0798C23.6404 22.1529 21.9452 23.8032 19.8464 24.7281C17.7477 25.653 15.3859 25.7907 13.1938 25.1159C11.0018 24.4412 9.12629 22.9991 7.911 21.054C6.69571 19.1089 6.22201 16.791 6.57669 14.525C6.93138 12.2591 8.0907 10.1968 9.84222 8.71607C11.5938 7.23535 13.8202 6.43535 16.1136 6.46266C18.1065 6.48639 20.034 7.13346 21.6307 8.30133C22.031 8.5941 22.5963 8.56402 22.9254 8.19303Z" fill="#B0B0B0"/>
<path d="M10 14.5L13.6621 17.7959C14.4227 18.4804 15.5773 18.4804 16.3379 17.7959L25 10" stroke="#B0B0B0" stroke-width="2" stroke-linecap="round"/>
</svg>
