<svg width="40" height="40" viewBox="0 0 40 40" fill="none" xmlns="http://www.w3.org/2000/svg">
<path d="M0 20C0 10.5719 0 5.85786 2.92893 2.92893C5.85786 0 10.5719 0 20 0V0C29.4281 0 34.1421 0 37.0711 2.92893C40 5.85786 40 10.5719 40 20V20C40 29.4281 40 34.1421 37.0711 37.0711C34.1421 40 29.4281 40 20 40V40C10.5719 40 5.85786 40 2.92893 37.0711C0 34.1421 0 29.4281 0 20V20Z" fill="#433A3A"/>
<path fill-rule="evenodd" clip-rule="evenodd" d="M22.137 9.40669C21.9712 9.1211 21.786 8.84259 21.581 8.5729C21.3113 8.77788 21.0582 8.99664 20.8221 9.22745C20.257 9.77969 19.7886 10.4009 19.42 11.0673C18.9742 10.4629 18.4378 9.91472 17.8166 9.44482C17.5532 9.2456 17.2746 9.06046 16.9812 8.89109C16.8119 9.18445 16.6632 9.48408 16.5347 9.78829C16.2348 10.4985 16.0451 11.2336 15.9599 11.9722C15.3738 11.6384 14.7385 11.3755 14.0641 11.1964C13.7449 11.1117 13.417 11.0458 13.0814 11C13.0356 11.3357 13.0114 11.6693 13.0076 11.9995C12.9994 12.7139 13.087 13.4124 13.2596 14.0808C12.4923 13.957 11.6981 13.9441 10.8991 14.0549C10.572 14.1003 10.2441 14.1664 9.91691 14.254C10.0046 14.5812 10.1113 14.8983 10.2356 15.2042C10.5126 15.8862 10.8767 16.5132 11.3112 17.0755C10.6456 17.2541 9.99563 17.5212 9.37872 17.8793C9.09312 18.0451 8.81461 18.2303 8.54492 18.4353C8.74991 18.705 8.96867 18.958 9.19947 19.1942C9.73684 19.744 10.3395 20.2024 10.9856 20.5662C10.3682 21.0168 9.80864 21.5614 9.33024 22.1938C9.13103 22.4572 8.94589 22.7358 8.77651 23.0291C9.06988 23.1985 9.36951 23.3472 9.67371 23.4757C10.3741 23.7715 11.0988 23.96 11.8271 24.0469C11.4767 24.6498 11.2016 25.3057 11.0163 26.0035C10.9316 26.3227 10.8657 26.6506 10.8199 26.9862C11.1556 27.032 11.4892 27.0562 11.8194 27.06C12.5676 27.0686 13.2982 26.9722 13.9951 26.783C13.8848 27.5218 13.8772 28.2845 13.9836 29.0517C14.0289 29.3788 14.095 29.7067 14.1827 30.0339C14.5099 29.9462 14.8269 29.8395 15.1328 29.7152C15.8472 29.4251 16.5012 29.0393 17.0838 28.5772C17.2621 29.272 17.5365 29.9506 17.9095 30.5933C18.0753 30.8789 18.2606 31.1574 18.4656 31.4271C18.7352 31.2221 18.9883 31.0034 19.2244 30.7726C19.7548 30.2543 20.2 29.6752 20.5574 29.0551C20.9941 29.6355 21.5153 30.1628 22.1157 30.617C22.3791 30.8162 22.6577 31.0013 22.951 31.1707C23.1204 30.8774 23.2691 30.5777 23.3976 30.2735C23.6906 29.5797 23.8784 28.862 23.9663 28.1405C24.5905 28.5128 25.2727 28.8037 26.0006 28.997C26.3198 29.0817 26.6477 29.1477 26.9834 29.1934C27.0291 28.8578 27.0534 28.5241 27.0572 28.1939C27.0658 27.4448 26.9691 26.7133 26.7794 26.0156C27.4904 26.1136 28.2228 26.1165 28.9592 26.0144C29.2863 25.969 29.6142 25.9029 29.9415 25.8153C29.8538 25.4881 29.747 25.171 29.6228 24.8651C29.3404 24.1699 28.9675 23.5319 28.5218 22.9612C29.2458 22.7837 29.9532 22.5025 30.6217 22.1144C30.9073 21.9487 31.1858 21.7634 31.4555 21.5584C31.2506 21.2887 31.0318 21.0357 30.801 20.7995C30.2628 20.2489 29.6591 19.79 29.0119 19.4258C29.5858 18.9917 30.1075 18.4746 30.5573 17.8799C30.7565 17.6166 30.9417 17.338 31.111 17.0446C30.8177 16.8752 30.518 16.7265 30.2138 16.5981C29.5377 16.3125 28.839 16.1269 28.1362 16.0363C28.5056 15.4147 28.7946 14.7357 28.9869 14.0116C29.0716 13.6924 29.1375 13.3645 29.1833 13.0288C28.8477 12.9831 28.514 12.9588 28.1838 12.9551C27.4006 12.9461 26.6366 13.0522 25.9104 13.2592C26.0137 12.5362 26.0186 11.7906 25.9146 11.0407C25.8693 10.7137 25.8032 10.3858 25.7155 10.0585C25.3883 10.1462 25.0713 10.2529 24.7653 10.3772C24.1091 10.6438 23.5037 10.991 22.9579 11.404C22.7794 10.7158 22.5067 10.0436 22.137 9.40669ZM14.0084 12.2196C14.6966 12.4246 15.3355 12.7304 15.9108 13.1179C15.9314 13.829 16.0466 14.5329 16.2513 15.2104C15.6695 14.8446 15.0413 14.5536 14.3828 14.3465C14.152 13.6729 14.022 12.9571 14.0084 12.2196ZM11.2436 15.02C12.0571 14.932 12.8622 14.9893 13.6284 15.1745C13.8868 15.7897 14.2205 16.3688 14.6196 16.8985C13.8982 16.7863 13.1618 16.7723 12.4323 16.8594C11.9499 16.3221 11.5458 15.7045 11.2436 15.02ZM14.9883 15.6558C15.3837 16.3213 15.8875 16.9192 16.4791 17.4223C16.9607 17.6233 17.4251 17.8724 17.8645 18.1686C17.8358 18.1244 17.8066 18.0806 17.777 18.0372C17.6195 17.8492 17.4713 17.6548 17.3328 17.4547C16.6849 16.6916 15.8827 16.0801 14.9883 15.6558ZM18.5734 17.43C18.6825 17.5585 18.7967 17.6835 18.9159 17.8046C18.9078 17.7547 18.8991 17.7049 18.89 17.6553C18.753 17.2746 18.6462 16.8867 18.5693 16.4951C18.2247 15.5684 17.6877 14.7267 17.0006 14.0254C17.1658 15.0311 17.5487 15.9968 18.1292 16.8474C18.2855 17.034 18.4338 17.2283 18.5734 17.43ZM16.9131 12.6099C17.4995 13.0665 18.0181 13.6016 18.4549 14.197C18.5215 13.4912 18.6811 12.7949 18.9312 12.128C18.5238 11.4705 18.0031 10.874 17.3777 10.3708C17.0952 11.1001 16.943 11.8564 16.9131 12.6099ZM19.5366 16.2279C19.6442 16.5271 19.7344 16.8339 19.806 17.1468C19.8373 16.7593 19.8967 16.377 19.9829 16.0026C20.0042 15.1382 19.8648 14.2792 19.5769 13.4706C19.3828 14.3732 19.3668 15.3115 19.5366 16.2279ZM17.3103 19.181C16.8272 18.9291 16.3751 18.63 15.959 18.2907C15.1642 17.9782 14.3192 17.8137 13.4687 17.8035C14.2806 18.4064 15.2186 18.8316 16.217 19.0409C16.571 19.0631 16.9251 19.109 17.2769 19.1793L17.3103 19.181ZM26.4 24.9337C27.1149 25.0876 27.8612 25.1308 28.6148 25.0493C28.3022 24.3413 27.8807 23.7049 27.3761 23.1549C26.6742 23.2216 25.9677 23.1952 25.276 23.0783C25.7312 23.6414 26.1102 24.2656 26.4 24.9337ZM23.0407 22.3519C23.8579 22.9188 24.5425 23.6524 25.0519 24.4967C24.2143 24.1281 23.452 23.5976 22.8137 22.9335C22.542 22.4967 22.2266 22.0837 21.8693 21.7015L21.8653 21.6949C21.9482 21.7312 22.0302 21.7691 22.1112 21.8084C22.4102 22.0116 22.7209 22.1929 23.0407 22.3519ZM20.1586 22.5312C20.2415 23.0485 20.3746 23.5517 20.5534 24.0347C20.6864 24.9447 20.6383 25.8706 20.4167 26.757C20.0694 25.8541 19.9097 24.8833 19.9547 23.9089C20.0325 23.5308 20.0832 23.1453 20.1053 22.755C20.1216 22.6798 20.1392 22.6047 20.158 22.5298L20.1586 22.5312ZM23.547 21.4862C23.2515 21.2854 22.9412 21.1036 22.6175 20.9427C22.5915 20.9246 22.5656 20.9063 22.5397 20.8879L22.591 20.8905C22.9455 20.9622 23.3023 21.0092 23.659 21.0321C24.6042 21.2329 25.4949 21.6271 26.275 22.1825C25.333 22.1367 24.4033 21.9019 23.547 21.4862ZM21.5763 25.9504C21.9869 26.5184 22.4715 27.0325 23.0181 27.4773C22.9859 28.2224 22.8339 28.9699 22.5545 29.691C21.9575 29.2105 21.4559 28.6451 21.0571 28.0227C21.3224 27.3565 21.4963 26.6589 21.5763 25.9504ZM22.9302 26.0275C22.3266 25.3763 21.8481 24.6133 21.5261 23.7793C21.4602 23.3681 21.3618 22.9602 21.2304 22.5594C21.4671 22.9106 21.73 23.2399 22.0155 23.5453C22.4761 24.3094 22.7855 25.1532 22.9302 26.0275ZM24.0226 26.9848C24.0058 26.2826 23.8968 25.5871 23.7004 24.9167C24.3098 25.2883 24.9682 25.5788 25.6579 25.7777C25.9036 26.4714 26.0422 27.211 26.0564 27.9738C25.3153 27.753 24.6314 27.4155 24.0226 26.9848ZM12.0395 26.0592C12.2513 25.3484 12.5705 24.6901 12.9763 24.1004C13.6992 24.0819 14.415 23.9655 15.1033 23.7568C14.7382 24.3486 14.4499 24.9873 14.248 25.6564C13.5507 25.9049 12.8068 26.045 12.0395 26.0592ZM14.9486 28.7072C14.8636 27.9214 14.9142 27.1433 15.0847 26.4007C15.7533 26.1101 16.3779 25.7302 16.9413 25.2738C16.8234 25.9863 16.8013 26.7141 16.878 27.4363C16.3201 27.9551 15.6716 28.388 14.9486 28.7072ZM15.551 25.0339C16.3728 24.5317 17.0883 23.8627 17.6452 23.0669C17.8144 22.72 18.0096 22.3837 18.2303 22.0612C18.2434 22.0337 18.2563 22.006 18.269 21.9783C18.2059 22.0168 18.1434 22.0561 18.0818 22.0964C17.8109 22.3358 17.5258 22.555 17.2286 22.7533C16.5176 23.394 15.948 24.1724 15.551 25.0339ZM17.4699 21.3018C17.5248 21.2523 17.579 21.2018 17.6325 21.1504C17.5836 21.1583 17.5347 21.1667 17.486 21.1757C17.1439 21.2915 16.7964 21.3832 16.4459 21.4511C15.4931 21.784 14.6259 22.3189 13.9031 23.0111C14.8661 22.854 15.7927 22.4973 16.6168 21.9587C16.8845 21.7221 17.1693 21.5024 17.4699 21.3018ZM12.4754 23.0965C12.9427 22.5077 13.4897 21.9888 14.0976 21.5543C13.3952 21.4817 12.703 21.3169 12.0405 21.0625C11.3723 21.4724 10.7664 21.9987 10.2563 22.6326C10.9791 22.9127 11.7285 23.0647 12.4754 23.0965ZM16.1892 20.4817C16.5273 20.3672 16.8747 20.2748 17.2293 20.2062L17.2547 20.1972C17.2189 20.1891 17.183 20.1813 17.147 20.1737C16.7889 20.1513 16.4349 20.1047 16.0871 20.0352C15.1639 19.9861 14.2429 20.121 13.3789 20.4254C14.2975 20.6318 15.2546 20.6533 16.1892 20.4817ZM19.0975 22.5658C18.9262 22.9172 18.7303 23.253 18.5123 23.5715C18.0996 24.4403 17.8719 25.3828 17.8377 26.336C18.376 25.571 18.7601 24.7013 18.9599 23.7791C18.9817 23.3937 19.0316 23.0081 19.1104 22.6252C19.1116 22.5978 19.1127 22.5704 19.1137 22.5429L19.0975 22.5658ZM24.8213 13.6575C24.9855 12.9252 25.0333 12.159 24.9495 11.3852C24.288 11.6774 23.6889 12.0646 23.1644 12.5258C23.2451 13.2527 23.2257 13.9858 23.1089 14.7035C23.6324 14.2859 24.2077 13.9338 24.8213 13.6575ZM22.4649 16.7996C22.9824 16.0999 23.625 15.5043 24.3549 15.0418C23.9758 15.8701 23.4373 16.6221 22.7671 17.2495C22.4151 17.4763 22.0792 17.7319 21.7632 18.0153C22.0345 17.6286 22.2687 17.2215 22.4649 16.7996ZM22.3892 18.8617C22.3616 18.8662 22.3339 18.8706 22.3061 18.8748L22.3202 18.8615C22.6985 18.6178 23.0526 18.3443 23.38 18.0451C24.195 17.5338 25.1053 17.1974 26.049 17.0524C25.3686 17.6911 24.5638 18.1921 23.6822 18.519C23.2455 18.5962 22.8129 18.7102 22.3892 18.8617ZM22.6465 19.8325C23.0896 19.7542 23.5218 19.639 23.9394 19.4898C24.8552 19.3392 25.7897 19.3729 26.6861 19.5832C25.7684 19.9344 24.7808 20.092 23.7909 20.038C23.4405 19.9671 23.0838 19.9195 22.7229 19.8963C22.6715 19.8854 22.6203 19.8739 22.569 19.8618C22.5948 19.8518 22.6206 19.8421 22.6465 19.8325ZM21.5973 16.292C21.308 16.6943 21.0546 17.1258 20.8422 17.5824C20.8222 17.6095 20.802 17.6364 20.7816 17.6632L20.7825 17.6173C20.8955 17.1264 20.9606 16.6301 20.9794 16.135C21.2089 15.1953 21.6306 14.3146 22.212 13.5493C22.1936 14.4917 21.9859 15.4263 21.5973 16.292ZM25.9312 18.4425C26.5076 18.027 27.0286 17.5356 27.4782 16.9804C28.2033 17.0181 28.9298 17.1693 29.6313 17.4411C29.1524 18.0362 28.5891 18.5366 27.969 18.9347C27.3127 18.6818 26.627 18.5168 25.9312 18.4425ZM26.9872 15.9718C26.248 15.9837 25.5155 16.098 24.8113 16.3088C25.1766 15.7116 25.4639 15.0671 25.6633 14.3922C26.387 14.1228 27.1626 13.9707 27.9637 13.9558C27.7451 14.6897 27.4119 15.3675 26.9872 15.9718ZM10.0628 18.6422C10.7034 18.2957 11.3814 18.0583 12.0723 17.9266C12.6096 18.4473 13.2162 18.889 13.8721 19.2402C13.2141 19.3955 12.5761 19.6335 11.975 19.9497C11.2815 19.6294 10.6335 19.1921 10.0628 18.6422ZM27.7418 22.1C27.2195 21.6017 26.6332 21.1772 26.001 20.837C26.7125 20.6705 27.4009 20.4072 28.0447 20.053C28.731 20.3724 29.3723 20.8067 29.9376 21.3515C29.2395 21.7292 28.4969 21.9773 27.7418 22.1ZM18.6725 29.9092C18.308 29.2355 18.0643 28.5204 17.9373 27.7926C18.4205 27.2789 18.8329 26.7046 19.1647 26.0864C19.3304 26.784 19.5891 27.459 19.9355 28.0913C19.6196 28.7493 19.1974 29.3645 18.6725 29.9092ZM22.1 12.1556C21.9706 11.4456 21.7299 10.7485 21.3741 10.0908C20.8103 10.6758 20.3649 11.3421 20.0426 12.0554C20.3624 12.6563 20.6038 13.2945 20.7622 13.953C21.1209 13.2967 21.5707 12.6908 22.1 12.1556Z" fill="white"/>
</svg>
