<svg width="24" height="24" viewBox="0 0 24 24" fill="none" xmlns="http://www.w3.org/2000/svg">
<path fill-rule="evenodd" clip-rule="evenodd" d="M12 24C18.6274 24 24 18.6274 24 12C24 5.37258 18.6274 0 12 0C5.37258 0 0 5.37258 0 12C0 18.6274 5.37258 24 12 24ZM9.30537 9.60953C9.30537 10.9976 10.5252 12.1706 11.9928 12.1706L12.0017 12.1711C12.7098 12.1731 13.3898 11.9044 13.8921 11.424C14.3945 10.9437 14.6782 10.2911 14.6808 9.60953C14.6808 8.17301 13.5114 7 11.9933 7C10.5252 7 9.30537 8.17351 9.30537 9.60953ZM10.8987 9.61003C10.8987 9.01103 11.3715 8.50852 11.9928 8.50852C12.6401 8.50852 13.0885 9.01052 13.088 9.61003C13.088 10.208 12.6401 10.663 11.9933 10.663C11.3715 10.663 10.8987 10.208 10.8987 9.61003ZM14.5816 15.7141L13.0635 14.3021C13.6361 14.1346 14.1836 13.9191 14.6559 13.6316C15.0045 13.4396 15.1047 12.9616 14.8803 12.6021C14.6564 12.2431 14.1841 12.1476 13.7857 12.3871C13.2461 12.704 12.6262 12.8716 11.9941 12.8716C11.362 12.8716 10.7421 12.704 10.2026 12.3871C9.80411 12.1476 9.35629 12.2431 9.10744 12.6021C8.90846 12.9616 8.98275 13.4401 9.35629 13.6316C9.85582 13.9174 10.3903 14.1423 10.9476 14.3011L9.4046 15.7136C9.10588 16.0246 9.10588 16.4796 9.4046 16.7671C9.57916 16.9101 9.77813 16.9821 9.95217 16.9821C10.1766 16.9821 10.3761 16.9106 10.5252 16.7671L11.9933 15.3306L13.5114 16.7671C13.7602 17.0776 14.2584 17.0776 14.5816 16.7671C14.8803 16.4796 14.8803 16.0246 14.5816 15.7141Z" fill="white"/>
</svg>
