<svg width="56" height="56" viewBox="0 0 56 56" fill="none" xmlns="http://www.w3.org/2000/svg">
<circle cx="28" cy="28" r="28" fill="#FCFBF7"/>
<path d="M25.0588 29.7648V22.7318L30.3369 19.5767C33.2613 17.8282 38.4969 22.1408 36.2989 26.0871" stroke="#48394A" stroke-width="1.67647" stroke-linejoin="round"/>
<path d="M25.0588 26.2252L30.9937 22.7061L36.3193 25.8635C39.2701 27.6133 38.2707 34.4708 33.8302 34.4708" stroke="#48394A" stroke-width="1.67647" stroke-linejoin="round"/>
<path d="M27.8992 25.0588L34.4706 28.328V34.199C34.4706 37.45 27.5145 39.8111 25.0588 36.1423" stroke="#48394A" stroke-width="1.67647" stroke-linejoin="round"/>
<path d="M30.9412 26.2354V33.2252L25.6632 36.4185C22.7388 38.1882 17.5032 33.8233 19.7012 29.8291" stroke="#48394A" stroke-width="1.67647" stroke-linejoin="round"/>
<path d="M30.9412 29.7751L25.008 33.2943L19.6838 30.1368C16.7292 28.3821 17.7283 21.5295 22.1675 21.5295" stroke="#48394A" stroke-width="1.67647" stroke-linejoin="round"/>
<path d="M28.1007 30.9412L21.5293 27.672V21.801C21.5293 18.55 28.4854 16.1889 30.9411 19.8577" stroke="#48394A" stroke-width="1.67647" stroke-linejoin="round"/>
</svg>
