<svg width="56" height="56" viewBox="0 0 56 56" fill="none" xmlns="http://www.w3.org/2000/svg">
<circle cx="28" cy="28" r="28" fill="#FCFBF7"/>
<path d="M18 33C18 31.4596 18 30.6893 18.3467 30.1235C18.5407 29.8069 18.8069 29.5407 19.1235 29.3467C19.6893 29 20.4596 29 22 29C23.5404 29 24.3107 29 24.8765 29.3467C25.1931 29.5407 25.4593 29.8069 25.6533 30.1235C26 30.6893 26 31.4596 26 33C26 34.5404 26 35.3107 25.6533 35.8765C25.4593 36.1931 25.1931 36.4593 24.8765 36.6533C24.3107 37 23.5404 37 22 37C20.4596 37 19.6893 37 19.1235 36.6533C18.8069 36.4593 18.5407 36.1931 18.3467 35.8765C18 35.3107 18 34.5404 18 33Z" stroke="#48394A" stroke-width="1.5"/>
<path d="M30 33C30 31.4596 30 30.6893 30.3467 30.1235C30.5407 29.8069 30.8069 29.5407 31.1235 29.3467C31.6893 29 32.4596 29 34 29C35.5404 29 36.3107 29 36.8765 29.3467C37.1931 29.5407 37.4593 29.8069 37.6533 30.1235C38 30.6893 38 31.4596 38 33C38 34.5404 38 35.3107 37.6533 35.8765C37.4593 36.1931 37.1931 36.4593 36.8765 36.6533C36.3107 37 35.5404 37 34 37C32.4596 37 31.6893 37 31.1235 36.6533C30.8069 36.4593 30.5407 36.1931 30.3467 35.8765C30 35.3107 30 34.5404 30 33Z" stroke="#48394A" stroke-width="1.5"/>
<path d="M18 21C18 19.4596 18 18.6893 18.3467 18.1235C18.5407 17.8069 18.8069 17.5407 19.1235 17.3467C19.6893 17 20.4596 17 22 17C23.5404 17 24.3107 17 24.8765 17.3467C25.1931 17.5407 25.4593 17.8069 25.6533 18.1235C26 18.6893 26 19.4596 26 21C26 22.5404 26 23.3107 25.6533 23.8765C25.4593 24.1931 25.1931 24.4593 24.8765 24.6533C24.3107 25 23.5404 25 22 25C20.4596 25 19.6893 25 19.1235 24.6533C18.8069 24.4593 18.5407 24.1931 18.3467 23.8765C18 23.3107 18 22.5404 18 21Z" stroke="#48394A" stroke-width="1.5"/>
<path d="M30 21C30 19.4596 30 18.6893 30.3467 18.1235C30.5407 17.8069 30.8069 17.5407 31.1235 17.3467C31.6893 17 32.4596 17 34 17C35.5404 17 36.3107 17 36.8765 17.3467C37.1931 17.5407 37.4593 17.8069 37.6533 18.1235C38 18.6893 38 19.4596 38 21C38 22.5404 38 23.3107 37.6533 23.8765C37.4593 24.1931 37.1931 24.4593 36.8765 24.6533C36.3107 25 35.5404 25 34 25C32.4596 25 31.6893 25 31.1235 24.6533C30.8069 24.4593 30.5407 24.1931 30.3467 23.8765C30 23.3107 30 22.5404 30 21Z" stroke="#48394A" stroke-width="1.5"/>
</svg>
