<svg width="56" height="56" viewBox="0 0 56 56" fill="none" xmlns="http://www.w3.org/2000/svg">
<circle cx="28" cy="28" r="28" fill="#FCFBF7"/>
<path d="M21 25C21 21.7002 21 20.0503 22.0251 19.0251C23.0503 18 24.7002 18 28 18C31.2998 18 32.9497 18 33.9749 19.0251C35 20.0503 35 21.7002 35 25V31C35 34.2998 35 35.9497 33.9749 36.9749C32.9497 38 31.2998 38 28 38C24.7002 38 23.0503 38 22.0251 36.9749C21 35.9497 21 34.2998 21 31V25Z" stroke="#48394A" stroke-width="1.5" stroke-linecap="round"/>
<path d="M27 35H29" stroke="#48394A" stroke-width="1.5" stroke-linecap="round" stroke-linejoin="round"/>
<path d="M25 18L25.089 18.534C25.2819 19.6913 25.3783 20.2699 25.7752 20.622C26.1892 20.9893 26.7761 21 28 21C29.2239 21 29.8108 20.9893 30.2248 20.622C30.6217 20.2699 30.7181 19.6913 30.911 18.534L31 18" stroke="#48394A" stroke-width="1.5" stroke-linejoin="round"/>
</svg>
