<svg width="56" height="56" viewBox="0 0 56 56" fill="none" xmlns="http://www.w3.org/2000/svg">
<circle cx="28" cy="28" r="28" fill="#FCFBF7"/>
<path d="M31 31C31 31.8284 31.6716 32.5 32.5 32.5C33.3284 32.5 34 31.8284 34 31C34 30.1716 33.3284 29.5 32.5 29.5C31.6716 29.5 31 30.1716 31 31Z" stroke="#141B34" stroke-width="1.5"/>
<path d="M19 28V22C21.1047 22.6213 25.5762 23.4267 31.0038 23.8028C33.9252 24.0052 35.3859 24.1065 36.1929 24.9769C37 25.8473 37 27.2497 37 30.0546V32.0683C37 34.9566 37 36.4008 36.0163 37.2998C35.0325 38.1987 33.6919 38.0677 31.0106 37.8058C30.3572 37.7419 29.6846 37.666 29 37.5762" stroke="#141B34" stroke-width="1.5" stroke-linecap="round" stroke-linejoin="round"/>
<path d="M33.6258 24C34.0035 22.5767 34.3453 19.9882 33.327 18.7029C32.6816 17.8883 31.7223 17.9665 30.7818 18.0493C25.8379 18.4841 22.3454 19.3673 20.393 19.9674C19.5535 20.2254 19 21.0452 19 21.9604" stroke="#141B34" stroke-width="1.5" stroke-linejoin="round"/>
<path d="M27 34H23M23 34H19M23 34V38M23 34L23 30" stroke="#141B34" stroke-width="1.5" stroke-linecap="round"/>
</svg>
