<svg width="30" height="30" viewBox="0 0 30 30" fill="none" xmlns="http://www.w3.org/2000/svg">
<path fill-rule="evenodd" clip-rule="evenodd" d="M12.8777 7.24993C13.187 6.37503 14.0214 5.75 14.9999 5.75C15.9784 5.75 16.8128 6.37503 17.1221 7.24993C17.2601 7.64047 17.6886 7.84517 18.0791 7.70713C18.4697 7.56909 18.6744 7.1406 18.5363 6.75007C18.0219 5.29459 16.6339 4.25 14.9999 4.25C13.366 4.25 11.9779 5.29459 11.4635 6.75007C11.3254 7.1406 11.5301 7.56909 11.9207 7.70713C12.3112 7.84517 12.7397 7.64047 12.8777 7.24993ZM5.74721 11.091C5.69387 11.0563 5.63777 11.0293 5.5802 11.0096C5.73334 10.692 5.92691 10.4162 6.17157 10.1716C7.34315 9 9.22876 9 13 9H17C20.7712 9 22.6569 9 23.8284 10.1716C24.0731 10.4163 24.2667 10.6921 24.4199 11.0097C24.3624 11.0294 24.3064 11.0564 24.2531 11.091C22.1527 12.4563 20.8331 13.3102 19.7366 13.858C19.6702 13.5117 19.3657 13.25 19 13.25C18.5858 13.25 18.25 13.5858 18.25 14V14.4581C16.1306 15.0976 13.8694 15.0976 11.75 14.458V14C11.75 13.5858 11.4142 13.25 11 13.25C10.6344 13.25 10.3299 13.5116 10.2635 13.8578C9.16701 13.31 7.84744 12.4561 5.74721 11.091ZM5 17C5 15.0495 5 13.6035 5.16208 12.4997C7.43876 13.9795 8.89798 14.9233 10.25 15.5046V16C10.25 16.4142 10.5858 16.75 11 16.75C11.4087 16.75 11.7411 16.4231 11.7498 16.0164C13.8801 16.5781 16.1199 16.5781 18.2502 16.0165C18.259 16.4231 18.5913 16.75 19 16.75C19.4142 16.75 19.75 16.4142 19.75 16V15.5047C21.1021 14.9235 22.5613 13.9797 24.8379 12.4999C25 13.6036 25 15.0497 25 17C25 20.7712 25 22.6569 23.8284 23.8284C22.6569 25 20.7712 25 17 25H13C9.22876 25 7.34315 25 6.17157 23.8284C5 22.6569 5 20.7712 5 17Z" fill="#B0B0B0"/>
</svg>
