<svg width="30" height="30" viewBox="0 0 30 30" fill="none" xmlns="http://www.w3.org/2000/svg">
<path d="M11.25 5H9C7.11438 5 6.17157 5 5.58579 5.58579C5 6.17157 5 7.11438 5 9V11.25H8C8.41421 11.25 8.75 11.5858 8.75 12C8.75 12.4142 8.41421 12.75 8 12.75H5V14.25H7C7.41421 14.25 7.75 14.5858 7.75 15C7.75 15.4142 7.41421 15.75 7 15.75H5V17.25L8 17.25C8.41421 17.25 8.75 17.5858 8.75 18C8.75 18.4142 8.41421 18.75 8 18.75L5 18.75V20.25H7C7.41421 20.25 7.75 20.5858 7.75 21C7.75 21.4142 7.41421 21.75 7 21.75H5.00008C5.00126 22.9896 5.02062 23.6376 5.33706 24.1111C5.48298 24.3295 5.67048 24.517 5.88886 24.6629C6.39331 25 7.09554 25 8.5 25C9.90446 25 10.6067 25 11.1111 24.6629C11.3295 24.517 11.517 24.3295 11.6629 24.1111C12 23.6067 12 22.9045 12 21.5V14C12 13.0572 12 12.5858 12.2929 12.2929C12.5858 12 13.0572 12 14 12H21.5C22.9045 12 23.6067 12 24.1111 11.6629C24.3295 11.517 24.517 11.3295 24.6629 11.1111C25 10.6067 25 9.90446 25 8.5C25 7.09554 25 6.39331 24.6629 5.88886C24.517 5.67048 24.3295 5.48298 24.1111 5.33706C23.6376 5.02062 22.9896 5.00126 21.75 5.00008V7C21.75 7.41421 21.4142 7.75 21 7.75C20.5858 7.75 20.25 7.41421 20.25 7V5H18.75V8C18.75 8.41421 18.4142 8.75 18 8.75C17.5858 8.75 17.25 8.41421 17.25 8V5H15.75V7C15.75 7.41421 15.4142 7.75 15 7.75C14.5858 7.75 14.25 7.41421 14.25 7V5H12.75L12.75 8C12.75 8.41421 12.4142 8.75 12 8.75C11.5858 8.75 11.25 8.41421 11.25 8L11.25 5Z" fill="#B0B0B0"/>
</svg>
