<svg width="30" height="30" viewBox="0 0 30 30" fill="none" xmlns="http://www.w3.org/2000/svg">
<path d="M9.25993 24.3884H9C8.05719 24.3884 7.58579 24.3884 7.29289 24.0955C7 23.8026 7 23.3312 7 22.3884V21.2764C7 20.7579 7 20.4987 7.13318 20.2672C7.26636 20.0356 7.46727 19.9188 7.8691 19.6851C10.5146 18.1464 14.2715 17.2803 16.7791 18.7759C16.9475 18.8764 17.0991 18.9977 17.2285 19.1431C17.7866 19.77 17.746 20.7161 17.1028 21.2775C16.9669 21.396 16.8222 21.486 16.6764 21.5172C16.7962 21.5033 16.911 21.4874 17.0206 21.4699C17.932 21.3245 18.697 20.8375 19.3974 20.3084L21.2046 18.9433C21.8417 18.462 22.7873 18.4619 23.4245 18.943C23.9982 19.3762 24.1736 20.0894 23.8109 20.6707C23.388 21.3487 22.7921 22.216 22.2199 22.7459C21.6469 23.2766 20.7939 23.7504 20.0975 24.0865C19.326 24.4589 18.4738 24.6734 17.6069 24.8138C15.8488 25.0983 14.0166 25.0549 12.2763 24.6964C11.2925 24.4937 10.2708 24.3884 9.25993 24.3884Z" fill="#B0B0B0"/>
<path d="M14.3592 12.2038C15.4209 13.2654 17.1421 13.2654 18.2038 12.2038C19.2654 11.1421 19.2654 9.42088 18.2038 8.35925L17.4805 7.63596C17.1796 8.24129 16.6774 9.02965 15.8535 9.85353C15.0296 10.6775 14.2412 11.1797 13.6359 11.4804L14.3592 12.2038Z" fill="#B0B0B0"/>
<path d="M15.6408 5.79623C14.5791 4.73459 12.8579 4.73459 11.7962 5.79623C10.7346 6.85786 10.7346 8.57912 11.7962 9.64075L12.8824 10.7269C12.9579 10.695 13.0398 10.6582 13.1273 10.6161C13.65 10.3642 14.3749 9.91792 15.1464 9.14642C15.9179 8.37492 16.3642 7.64996 16.6162 7.12715C16.6583 7.03973 16.695 6.95792 16.727 6.88243L15.6408 5.79623Z" fill="#B0B0B0"/>
</svg>
