<svg width="30" height="30" viewBox="0 0 30 30" fill="none" xmlns="http://www.w3.org/2000/svg">
<path fill-rule="evenodd" clip-rule="evenodd" d="M24.8382 14.1263L24.609 16.5616C24.2313 20.5742 24.0425 22.5805 22.8599 23.7902C21.6773 25 19.9048 25 16.3599 25H13.6401C10.0952 25 8.32271 25 7.14009 23.7902C5.95748 22.5805 5.76865 20.5742 5.391 16.5616L5.16181 14.1263C4.9818 12.2137 4.8918 11.2574 5.21899 10.8621C5.39598 10.6482 5.63666 10.5172 5.89399 10.4946C6.36968 10.4528 6.96708 11.1329 8.16187 12.4931C8.77977 13.1965 9.08872 13.5482 9.43337 13.6027C9.62434 13.6328 9.81892 13.6018 9.99526 13.5131C10.3135 13.3529 10.5257 12.9181 10.9501 12.0485L13.1869 7.46486C13.9888 5.82162 14.3898 5 15 5C15.6102 5 16.0112 5.82162 16.8131 7.46485L19.0499 12.0485C19.4743 12.9181 19.6865 13.3529 20.0047 13.5131C20.1811 13.6018 20.3757 13.6328 20.5666 13.6027C20.9113 13.5482 21.2202 13.1965 21.8381 12.4931C23.0329 11.1329 23.6303 10.4528 24.106 10.4946C24.3633 10.5172 24.604 10.6482 24.781 10.8621C25.1082 11.2574 25.0182 12.2137 24.8382 14.1263ZM11.25 21C11.25 20.5858 11.5858 20.25 12 20.25H18C18.4142 20.25 18.75 20.5858 18.75 21C18.75 21.4142 18.4142 21.75 18 21.75H12C11.5858 21.75 11.25 21.4142 11.25 21Z" fill="#B0B0B0"/>
</svg>
