<svg width="30" height="30" viewBox="0 0 30 30" fill="none" xmlns="http://www.w3.org/2000/svg">
<path d="M20.875 10.0368H7.59375V9.49662L19.2812 8.54598V9.49662H20.875V7.87622C20.875 6.68792 19.9283 5.85395 18.7723 6.02139L8.10375 7.5705C6.94669 7.73902 6 8.84846 6 10.0368V20.8395C6 21.4125 6.22388 21.962 6.6224 22.3672C7.02091 22.7724 7.56141 23 8.125 23H20.875C21.4386 23 21.9791 22.7724 22.3776 22.3672C22.7761 21.962 23 21.4125 23 20.8395V12.1973C23 11.6243 22.7761 11.0747 22.3776 10.6696C21.9791 10.2644 21.4386 10.0368 20.875 10.0368ZM19.2812 17.6051C19.0719 17.6051 18.8646 17.5631 18.6712 17.4815C18.4778 17.4 18.3021 17.2806 18.1541 17.13C18.0061 16.9794 17.8887 16.8007 17.8087 16.604C17.7286 16.4073 17.6874 16.1965 17.6875 15.9836C17.6876 15.7708 17.7289 15.56 17.8091 15.3634C17.8892 15.1667 18.0067 14.9881 18.1548 14.8376C18.3029 14.6872 18.4787 14.5678 18.6722 14.4864C18.8656 14.405 19.0729 14.3632 19.2823 14.3632C19.7051 14.3634 20.1106 14.5343 20.4095 14.8384C20.7084 15.1425 20.8762 15.5548 20.8761 15.9847C20.8759 16.4146 20.7078 16.8269 20.4087 17.1307C20.1096 17.4346 19.7041 17.6053 19.2812 17.6051Z" fill="#B0B0B0"/>
</svg>
