<svg width="20" height="20" viewBox="0 0 20 20" fill="none" xmlns="http://www.w3.org/2000/svg">
<path d="M15.5131 12.8433L15.9834 10.1235C16.1009 9.44418 15.5785 8.82284 14.8898 8.82284H11.4358C11.0935 8.82284 10.8328 8.51556 10.8882 8.17736L11.33 5.48099C11.4017 5.04294 11.3812 4.59471 11.2698 4.16506C11.1775 3.80913 10.9028 3.52334 10.5417 3.40732L10.4451 3.37628C10.2268 3.30616 9.98857 3.32248 9.78279 3.42164C9.55629 3.53078 9.39059 3.72986 9.32917 3.96663L9.01203 5.1892C8.91112 5.5782 8.76414 5.95367 8.57463 6.30845C8.29773 6.82682 7.8696 7.24168 7.42458 7.62517L6.46542 8.4517C6.19498 8.68474 6.05296 9.03375 6.08373 9.38964L6.62517 15.6514C6.67484 16.2258 7.15504 16.6667 7.73089 16.6667H10.83C13.1508 16.6667 15.1315 15.0496 15.5131 12.8433Z" fill="white"/>
<path fill-rule="evenodd" clip-rule="evenodd" d="M3.97844 8.32335C4.24595 8.3118 4.47507 8.51305 4.49814 8.77981L5.14587 16.2708C5.18748 16.752 4.80846 17.1667 4.32447 17.1667C3.86859 17.1667 3.5 16.7969 3.5 16.3419V8.82288C3.5 8.55513 3.71093 8.33489 3.97844 8.32335Z" fill="white"/>
</svg>
