<svg width="20" height="20" viewBox="0 0 20 20" fill="none" xmlns="http://www.w3.org/2000/svg">
<path d="M15.3334 12.0002C15.3334 14.8365 13.588 16.0811 12.2393 16.5008C11.9517 16.5903 11.7626 16.255 11.9347 16.0078C12.5216 15.1643 13.2001 13.8774 13.2001 12.6668C13.2001 11.3664 12.104 9.83118 11.2482 8.88425C11.0525 8.66776 10.7112 8.81101 10.7005 9.10262C10.6652 10.0688 10.5127 11.3614 9.8553 12.3744C9.74948 12.5375 9.52485 12.551 9.40429 12.3985C9.19888 12.1387 8.99347 11.8178 8.78806 11.5643C8.67742 11.4278 8.47744 11.4259 8.34982 11.5467C7.85225 12.0179 7.15564 12.7526 7.15564 13.6668C7.15564 14.2868 7.39581 14.9367 7.66679 15.4596C7.81587 15.7473 7.55079 16.0935 7.2639 15.943C6.07546 15.3193 4.66675 14.0559 4.66675 12.0002C4.66675 9.90254 7.54028 6.99673 8.63745 4.25145C8.81058 3.81826 9.34414 3.6147 9.71524 3.89739C11.9627 5.60943 15.3334 8.91892 15.3334 12.0002Z" fill="white"/>
</svg>
