<svg width="42" height="42" viewBox="0 0 42 42" fill="none" xmlns="http://www.w3.org/2000/svg">
<path d="M18.4606 7.19446C18.9553 7.49693 19.1112 8.14322 18.8087 8.63799C18.5893 8.99702 18.6443 9.45967 18.9418 9.75722L19.0789 9.89425C19.903 10.7184 20.2069 11.9291 19.8696 13.0447C19.7018 13.5998 19.1158 13.9137 18.5607 13.746C18.0056 13.5782 17.6917 12.9921 17.8595 12.4371C17.9727 12.0624 17.8707 11.6559 17.5939 11.3792L17.4569 11.2421C16.4734 10.2586 16.2915 8.72939 17.017 7.54266C17.3195 7.04789 17.9658 6.892 18.4606 7.19446Z" fill="#B0B0B0"/>
<path d="M28.9647 10.8099C29.5334 10.9236 29.9021 11.4768 29.7884 12.0454L29.5868 13.0534C29.3094 14.4405 28.31 15.5726 26.968 16.02C26.3409 16.229 25.8739 16.758 25.7442 17.4062L25.5426 18.4141C25.4289 18.9827 24.8758 19.3515 24.3071 19.2378C23.7385 19.1241 23.3697 18.5709 23.4834 18.0023L23.685 16.9944C23.9624 15.6072 24.9619 14.4751 26.3039 14.0277C26.931 13.8187 27.398 13.2897 27.5276 12.6415L27.7292 11.6336C27.8429 11.065 28.3961 10.6962 28.9647 10.8099Z" fill="#B0B0B0"/>
<path d="M34.172 23.1829C33.6656 22.9615 33.0767 23.0545 32.6631 23.4212C31.5302 24.4259 29.8815 24.5928 28.5701 23.8357L28.2721 23.6637C27.7699 23.3737 27.5978 22.7316 27.8878 22.2293C28.1777 21.7271 28.8199 21.5551 29.3221 21.845L29.6201 22.0171C30.1487 22.3222 30.8132 22.2549 31.2699 21.85C32.2958 20.9402 33.7569 20.7095 35.0133 21.2588L35.4213 21.4372C35.9527 21.6696 36.1951 22.2886 35.9628 22.82C35.7304 23.3513 35.1114 23.5937 34.5801 23.3614L34.172 23.1829Z" fill="#B0B0B0"/>
<path d="M13.8987 9.71679C14.192 9.42354 14.6674 9.42354 14.9607 9.71679C15.2539 10.0101 15.2539 10.4855 14.9607 10.7788C14.6674 11.072 14.192 11.072 13.8987 10.7788C13.6054 10.4855 13.6054 10.0101 13.8987 9.71679Z" fill="#B0B0B0"/>
<path d="M22.282 14.2196C21.9887 13.9264 21.5132 13.9264 21.22 14.2196C20.9267 14.5129 20.9267 14.9883 21.22 15.2816C21.5132 15.5749 21.9887 15.5749 22.282 15.2816C22.5752 14.9883 22.5752 14.5129 22.282 14.2196Z" fill="#B0B0B0"/>
<path d="M28.22 18.4196C28.5132 18.1264 28.9887 18.1264 29.282 18.4196C29.5752 18.7129 29.5752 19.1883 29.282 19.4816C28.9887 19.7749 28.5132 19.7749 28.22 19.4816C27.9267 19.1883 27.9267 18.7129 28.22 18.4196Z" fill="#B0B0B0"/>
<path d="M31.9432 25.6384C31.6499 25.3451 31.1745 25.3451 30.8812 25.6384C30.588 25.9316 30.588 26.4071 30.8812 26.7003C31.1745 26.9936 31.6499 26.9936 31.9432 26.7003C32.2365 26.4071 32.2365 25.9316 31.9432 25.6384Z" fill="#B0B0B0"/>
<path d="M14.6602 32.5377C11.494 33.5815 9.82579 34.0183 8.90299 33.0955C7.88115 32.0737 8.52642 30.1379 9.81694 26.2663L12.1822 19.1705C13.0671 16.516 13.5869 14.9566 14.4542 14.324L14.4469 14.3602C14.4368 14.4104 14.4222 14.4839 14.4038 14.5784C14.3671 14.7674 14.3151 15.0407 14.2538 15.3811C14.1311 16.0615 13.9706 17.0124 13.8185 18.0959C13.5173 20.2424 13.2384 22.9849 13.3821 25.1765C13.4691 26.5027 13.745 28.1478 13.9912 29.4332C14.1155 30.082 14.2344 30.6505 14.3224 31.0572C14.3664 31.2606 14.4027 31.4239 14.4281 31.5368L14.4577 31.6671L14.6602 32.5377Z" fill="#B0B0B0"/>
<path d="M22.4545 29.9408L22.8281 29.8163C26.0453 28.7439 27.654 28.2077 27.9535 26.9389C28.253 25.6701 27.054 24.4711 24.656 22.0731L22.291 19.7082L22.2844 19.7289C22.257 19.8154 22.2172 19.9429 22.1693 20.103C22.0732 20.4239 21.9451 20.8731 21.8172 21.3853C21.5554 22.4336 21.3178 23.656 21.3178 24.5771C21.3178 25.4982 21.5554 26.7206 21.8172 27.7689C21.9451 28.2811 22.0732 28.7304 22.1693 29.0512C22.2172 29.2114 22.257 29.3388 22.2844 29.4254C22.2982 29.4686 22.3088 29.5016 22.3158 29.5232L22.3236 29.5471L22.3254 29.5524L22.4545 29.9408Z" fill="#B0B0B0"/>
<path d="M16.5196 14.7058L16.5905 14.3624C17.4484 14.8655 18.4643 15.8815 19.9254 17.3425L20.6294 18.0465L20.3315 18.9426L20.3188 18.9816C20.3103 19.0077 20.2981 19.0454 20.2828 19.0936C20.2522 19.19 20.2091 19.3285 20.1575 19.5008C20.0545 19.8448 19.9173 20.326 19.7798 20.8765C19.5109 21.9534 19.2178 23.3846 19.2178 24.5771C19.2178 25.7696 19.5109 27.2009 19.7798 28.2777C19.9173 28.8282 20.0545 29.3094 20.1575 29.6534C20.2091 29.8257 20.2522 29.9642 20.2828 30.0606C20.2981 30.1088 20.3103 30.1465 20.3188 30.1727L20.4622 30.6049L16.6613 31.8719L16.5118 31.2291L16.5047 31.1981L16.4768 31.0753C16.4525 30.9677 16.4175 30.8103 16.3749 30.6133C16.2896 30.2189 16.1742 29.667 16.0537 29.0381C15.8104 27.7683 15.5556 26.229 15.4776 25.0391C15.3487 23.0738 15.6005 20.5092 15.8982 18.3877C16.0456 17.3371 16.2015 16.4138 16.3205 15.7536C16.3799 15.4237 16.4301 15.16 16.4652 14.9796C16.4827 14.8894 16.4965 14.8201 16.5058 14.7737L16.5163 14.7217L16.5189 14.7092L16.5196 14.7058Z" fill="#B0B0B0"/>
<path d="M25.135 7.29428C25.3474 7.26612 25.7344 7.25259 26.0421 7.56026C26.3498 7.86793 26.3363 8.25501 26.3081 8.46736C26.2815 8.66804 26.2131 8.90847 26.1479 9.13751L26.0977 9.31392L26.1883 9.45736C26.3108 9.65136 26.4424 9.85977 26.523 10.0452C26.6139 10.2543 26.7173 10.6072 26.5224 10.9781C26.3312 11.3418 25.9889 11.4616 25.7711 11.5111C25.573 11.5561 25.3251 11.5754 25.0895 11.5937L24.911 11.6076L24.8961 11.6088L24.7675 11.765C24.614 11.9516 24.4546 12.1453 24.3045 12.2826C24.1454 12.4281 23.8465 12.6524 23.4304 12.5955C23 12.5365 22.7769 12.2249 22.6689 12.0302C22.5711 11.8538 22.4855 11.6217 22.4057 11.4054L22.3494 11.253L22.197 11.1967C21.9806 11.1169 21.7485 11.0313 21.5722 10.9335C21.3775 10.8255 21.0658 10.6023 21.0069 10.172C20.9499 9.75583 21.1742 9.45697 21.3197 9.2979C21.4571 9.14774 21.6508 8.98841 21.8374 8.83487L21.9936 8.70628L21.9947 8.69141L22.0087 8.51289C22.027 8.27722 22.0462 8.0294 22.0913 7.83123C22.1408 7.61344 22.2605 7.27118 22.6243 7.07999C22.9951 6.88508 23.3481 6.98849 23.5572 7.07937C23.7426 7.15995 23.951 7.2916 24.1451 7.41414L24.2884 7.50463L24.4648 7.4545C24.6939 7.38932 24.9343 7.3209 25.135 7.29428Z" fill="#B0B0B0"/>
<path d="M35.1956 18.8889C35.8496 18.2349 36.0913 17.3545 35.7331 16.579C35.4614 15.9908 34.9115 15.6082 34.2363 15.4641C34.0922 14.7889 33.7096 14.239 33.1214 13.9673C32.3459 13.6091 31.4655 13.8508 30.8115 14.5048C30.4323 14.884 30.2605 15.3923 30.18 15.8448C30.0977 16.3078 30.0961 16.7972 30.1236 17.226C30.1513 17.6589 30.2104 18.0559 30.262 18.3429C30.2879 18.4872 30.3123 18.6055 30.3304 18.6889C30.3395 18.7307 30.347 18.7638 30.3525 18.7872C30.4149 19.0393 30.6212 19.276 30.8733 19.3384L30.8749 19.3388L30.9132 19.3479C30.9366 19.3534 30.9697 19.3609 31.0115 19.37C31.0949 19.3882 31.2132 19.4125 31.3575 19.4384C31.6445 19.49 32.0415 19.5492 32.4745 19.5769C32.9032 19.6043 33.3926 19.6027 33.8556 19.5204C34.3082 19.4399 34.8164 19.2681 35.1956 18.8889Z" fill="#B0B0B0"/>
</svg>
