<svg width="42" height="42" viewBox="0 0 42 42" fill="none" xmlns="http://www.w3.org/2000/svg">
<path d="M28.41 7.41005C28 7.8201 28 8.48007 28 9.8V28C28 29.3199 28 29.9799 28.41 30.3899C28.8201 30.8 29.48 30.8 30.8 30.8C32.1199 30.8 32.7799 30.8 33.1899 30.3899C33.6 29.9799 33.6 29.3199 33.6 28V9.8C33.6 8.48007 33.6 7.8201 33.1899 7.41005C32.7799 7 32.1199 7 30.8 7C29.48 7 28.8201 7 28.41 7.41005Z" fill="#B0B0B0"/>
<path d="M18.2 14C18.2 12.6801 18.2 12.0201 18.61 11.6101C19.0201 11.2 19.68 11.2 21 11.2C22.3199 11.2 22.9799 11.2 23.3899 11.6101C23.8 12.0201 23.8 12.6801 23.8 14V28C23.8 29.3199 23.8 29.9799 23.3899 30.3899C22.9799 30.8 22.3199 30.8 21 30.8C19.68 30.8 19.0201 30.8 18.61 30.3899C18.2 29.9799 18.2 29.3199 18.2 28V14Z" fill="#B0B0B0"/>
<path d="M8.81003 17.2101C8.39998 17.6201 8.39998 18.2801 8.39998 19.6V28C8.39998 29.3199 8.39998 29.9799 8.81003 30.3899C9.22008 30.8 9.88004 30.8 11.2 30.8C12.5199 30.8 13.1799 30.8 13.5899 30.3899C14 29.9799 14 29.3199 14 28V19.6C14 18.2801 14 17.6201 13.5899 17.2101C13.1799 16.8 12.5199 16.8 11.2 16.8C9.88004 16.8 9.22008 16.8 8.81003 17.2101Z" fill="#B0B0B0"/>
<path d="M8.39998 33.95C7.82008 33.95 7.34998 34.4201 7.34998 35C7.34998 35.5799 7.82008 36.05 8.39998 36.05H33.6C34.1799 36.05 34.65 35.5799 34.65 35C34.65 34.4201 34.1799 33.95 33.6 33.95H8.39998Z" fill="#B0B0B0"/>
</svg>
