<svg width="134" height="134" viewBox="0 0 134 134" fill="none" xmlns="http://www.w3.org/2000/svg">
<path d="M66.0719 63.8891C55.4719 56.8822 51.7563 43.0157 57.4328 31.6475C68.0329 38.6544 71.7484 52.5209 66.0719 63.8891Z" stroke="white" stroke-width="3"/>
<path d="M76.2087 101.72C65.6086 94.7133 61.893 80.8467 67.5695 69.4785C78.1696 76.4854 81.8852 90.352 76.2087 101.72Z" stroke="white" stroke-width="3"/>
<path d="M69.6326 65.9298C76.6395 55.3298 90.5061 51.6142 101.874 57.2907C94.8674 67.8908 81.0008 71.6064 69.6326 65.9298Z" stroke="white" stroke-width="3"/>
<path d="M31.6182 76.1159C38.6251 65.5158 52.4917 61.8003 63.8598 67.4768C56.853 78.0769 42.9864 81.7924 31.6182 76.1159Z" stroke="white" stroke-width="3"/>
<path d="M68.2105 64.2295C65.6697 51.7796 72.8476 39.3471 84.9 35.3225C87.4408 47.7725 80.2629 60.2049 68.2105 64.2295Z" stroke="white" stroke-width="3"/>
<path d="M48.6275 98.148C46.0867 85.698 53.2646 73.2656 65.317 69.241C67.8578 81.691 60.6799 94.1234 48.6275 98.148Z" stroke="white" stroke-width="3"/>
<path d="M69.2846 68.1895C81.7346 65.6487 94.167 72.8266 98.1916 84.879C85.7416 87.4198 73.3092 80.2419 69.2846 68.1895Z" stroke="white" stroke-width="3"/>
<path d="M35.2021 48.5123C47.6521 45.9715 60.0845 53.1493 64.1091 65.2017C51.6591 67.7425 39.2267 60.5647 35.2021 48.5123Z" stroke="white" stroke-width="3"/>
<path d="M67.4019 63.714C60.3385 53.1516 62.2775 38.9274 71.9104 30.6409C78.9738 41.2034 77.0348 55.4276 67.4019 63.714Z" stroke="white" stroke-width="3"/>
<path d="M62.1119 102.521C55.0484 91.9582 56.9874 77.734 66.6203 69.4476C73.6838 80.0101 71.7448 94.2342 62.1119 102.521Z" stroke="white" stroke-width="3"/>
<path d="M69.8956 66.973C80.4581 59.9095 94.6822 61.8485 102.969 71.4814C92.4062 78.5449 78.182 76.6059 69.8956 66.973Z" stroke="white" stroke-width="3"/>
<path d="M30.9007 61.6585C41.4632 54.595 55.6873 56.5341 63.9738 66.167C53.4113 73.2304 39.1872 71.2914 30.9007 61.6585Z" stroke="white" stroke-width="3"/>
<path d="M69.2425 64.8534C71.7167 52.39 83.1458 43.7031 95.8167 44.6552C93.3425 57.1186 81.9134 65.8055 69.2425 64.8534Z" stroke="white" stroke-width="3"/>
<path d="M38.0611 88.5546C40.5353 76.0912 51.9644 67.4042 64.6353 68.3563C62.1611 80.8197 50.732 89.5066 38.0611 88.5546Z" stroke="white" stroke-width="3"/>
<path d="M68.7003 68.9237C81.1637 71.3978 89.8506 82.8269 88.8986 95.4978C76.4351 93.0236 67.7482 81.5946 68.7003 68.9237Z" stroke="white" stroke-width="3"/>
<path d="M44.8859 37.5921C57.3493 40.0663 66.0362 51.4954 65.0841 64.1663C52.6207 61.6921 43.9338 50.263 44.8859 37.5921Z" stroke="white" stroke-width="3"/>
<circle cx="66.6969" cy="66.6947" r="3.58582" fill="white"/>
</svg>
