<svg width="46" height="46" viewBox="0 0 46 46" fill="none" xmlns="http://www.w3.org/2000/svg">
<g clip-path="url(#clip0_20_387)">
<path d="M23 0C16.9014 0 11.0472 2.4247 6.73828 6.73648C2.42493 11.05 0.00119481 16.8999 0 23C0 29.0975 2.42578 34.9517 6.73828 39.2635C11.0472 43.5753 16.9014 46 23 46C29.0986 46 34.9528 43.5753 39.2617 39.2635C43.5742 34.9517 46 29.0975 46 23C46 16.9025 43.5742 11.0483 39.2617 6.73648C34.9528 2.4247 29.0986 0 23 0Z" fill="url(#paint0_linear_20_387)"/>
<path d="M10.4111 22.7571C17.1171 19.8361 21.5877 17.9102 23.823 16.9798C30.2127 14.3229 31.5388 13.8615 32.4049 13.8458C32.5953 13.8428 33.0194 13.8899 33.2961 14.1136C33.5261 14.3022 33.5908 14.5574 33.6231 14.7366C33.6519 14.9155 33.6914 15.3234 33.6591 15.6418C33.3141 19.2787 31.8155 28.1042 31.0536 32.1777C30.7338 33.9013 30.0977 34.4792 29.4831 34.5356C28.1463 34.6585 27.1328 33.653 25.8391 32.8052C23.8158 31.478 22.673 30.6522 20.7072 29.3574C18.436 27.8609 19.9094 27.0383 21.2031 25.6943C21.541 25.3424 27.4275 19.9895 27.5389 19.504C27.5533 19.4433 27.5677 19.2169 27.4311 19.0976C27.2981 18.9779 27.1005 19.0189 26.9567 19.0512C26.7519 19.0972 23.5211 21.2348 17.2536 25.4635C16.3372 26.0939 15.5071 26.4011 14.7596 26.385C13.9402 26.3674 12.3589 25.9207 11.1838 25.539C9.74627 25.0707 8.59986 24.8231 8.70049 24.0278C8.7508 23.6138 9.32221 23.1901 10.4111 22.7571Z" fill="white"/>
</g>
<defs>
<linearGradient id="paint0_linear_20_387" x1="2300" y1="0" x2="2300" y2="4600" gradientUnits="userSpaceOnUse">
<stop stop-color="#2AABEE"/>
<stop offset="1" stop-color="#229ED9"/>
</linearGradient>
<clipPath id="clip0_20_387">
<rect width="46" height="46" fill="white"/>
</clipPath>
</defs>
</svg>
