<svg width="40" height="40" viewBox="0 0 40 40" fill="none" xmlns="http://www.w3.org/2000/svg">
<rect width="40" height="40" rx="10" fill="#433A3A"/>
<path d="M19.7929 19.0848C16.6875 16.9983 15.5956 12.9231 17.2417 9.56346C20.3471 11.6499 21.439 15.7251 19.7929 19.0848Z" stroke="white"/>
<path d="M22.8326 30.4291C19.7272 28.3426 18.6352 24.2674 20.2814 20.9078C23.3867 22.9942 24.4787 27.0695 22.8326 30.4291Z" stroke="white"/>
<path d="M20.9538 19.7506C23.0403 16.6453 27.1155 15.5533 30.4751 17.1994C28.3887 20.3048 24.3134 21.3968 20.9538 19.7506Z" stroke="white"/>
<path d="M9.55453 22.8051C11.641 19.6997 15.7162 18.6077 19.0758 20.2538C16.9894 23.3592 12.9141 24.4512 9.55453 22.8051Z" stroke="white"/>
<path d="M20.4918 19.1944C19.7713 15.5232 21.8808 11.8694 25.4204 10.6578C26.1409 14.329 24.0314 17.9827 20.4918 19.1944Z" stroke="white"/>
<path d="M14.6195 29.3654C13.899 25.6942 16.0085 22.0404 19.5481 20.8288C20.2686 24.5 18.1591 28.1538 14.6195 29.3654Z" stroke="white"/>
<path d="M20.8418 20.4861C24.5129 19.7656 28.1667 21.8751 29.3783 25.4146C25.7071 26.1351 22.0534 24.0256 20.8418 20.4861Z" stroke="white"/>
<path d="M10.6215 14.5854C14.2927 13.8649 17.9465 15.9744 19.1581 19.514C15.4869 20.2345 11.8332 18.125 10.6215 14.5854Z" stroke="white"/>
<path d="M20.2216 19.0303C18.1653 15.9049 18.7352 11.7245 21.553 9.2635C23.6092 12.389 23.0394 16.5693 20.2216 19.0303Z" stroke="white"/>
<path d="M18.6353 30.6672C16.579 27.5418 17.1489 23.3614 19.9667 20.9004C22.0229 24.0258 21.4531 28.2062 18.6353 30.6672Z" stroke="white"/>
<path d="M21.0345 20.0935C24.16 18.0373 28.3403 18.6071 30.8014 21.4249C27.6759 23.4812 23.4956 22.9113 21.0345 20.0935Z" stroke="white"/>
<path d="M9.34129 18.4995C12.4668 16.4433 16.6471 17.0131 19.1081 19.8309C15.9827 21.8872 11.8023 21.3173 9.34129 18.4995Z" stroke="white"/>
<path d="M20.8238 19.4019C21.5798 15.7378 24.9387 13.1849 28.6714 13.4371C27.9154 17.1011 24.5565 19.6541 20.8238 19.4019Z" stroke="white"/>
<path d="M11.4736 26.5087C12.2296 22.8447 15.5885 20.2917 19.3212 20.5439C18.5651 24.2079 15.2063 26.7609 11.4736 26.5087Z" stroke="white"/>
<path d="M20.6468 20.7284C24.3108 21.4844 26.8638 24.8433 26.6115 28.576C22.9475 27.82 20.3945 24.4611 20.6468 20.7284Z" stroke="white"/>
<path d="M13.5055 11.3329C17.1696 12.089 19.7225 15.4478 19.4703 19.1805C15.8063 18.4245 13.2533 15.0656 13.5055 11.3329Z" stroke="white"/>
<circle cx="20" cy="20" r="1.07527" fill="white"/>
</svg>
